<?xml version="1.0" encoding="UTF-8" standalone="no"?>
<!DOCTYPE svg PUBLIC "-//W3C//DTD SVG 1.1//EN"
 "http://www.w3.org/Graphics/SVG/1.1/DTD/svg11.dtd">
<!-- Generated by graphviz version 2.44.1 (20200629.0846)
 -->
<!-- Title: skills Pages: 1 -->
<svg width="352pt" height="784pt"
 viewBox="0.00 0.00 352.00 784.00" xmlns="http://www.w3.org/2000/svg" xmlns:xlink="http://www.w3.org/1999/xlink">
<g id="graph0" class="graph" transform="scale(1 1) rotate(0) translate(4 780)">
<title>skills</title>
<polygon fill="white" stroke="transparent" points="-4,4 -4,-780 348,-780 348,4 -4,4"/>
<!-- JavaScript&#45;&gt;React -->
<g id="edge2" class="edge">
<title>JavaScript&#45;&gt;React</title>
<path fill="none" stroke="#c9d1d9" d="M28.56,-184.19C30.31,-228.46 37.15,-340.06 62,-366 79.84,-384.62 109.33,-389.37 132.11,-389.9"/>
<polygon fill="#c9d1d9" stroke="#c9d1d9" points="138.34,-389.94 132.32,-392.6 135.34,-389.92 132.34,-389.9 132.34,-389.9 132.34,-389.9 135.34,-389.92 132.36,-387.2 138.34,-389.94 138.34,-389.94"/>
</g>
<!-- JavaScript&#45;&gt;Vue -->
<g id="edge3" class="edge">
<title>JavaScript&#45;&gt;Vue</title>
<path fill="none" stroke="#c9d1d9" d="M29.34,-184.18C32.52,-222.3 41.82,-308.71 62,-329 80.06,-347.17 109.25,-352.01 131.87,-352.68"/>
<polygon fill="#c9d1d9" stroke="#c9d1d9" points="138.06,-352.77 132.02,-355.39 135.06,-352.73 132.06,-352.69 132.06,-352.69 132.06,-352.69 135.06,-352.73 132.1,-349.99 138.06,-352.77 138.06,-352.77"/>
</g>
<!-- JavaScript&#45;&gt;Cypress -->
<g id="edge4" class="edge">
<title>JavaScript&#45;&gt;Cypress</title>
<path fill="none" stroke="#c9d1d9" d="M54.32,-166C76.51,-166 108.35,-166 132.1,-166"/>
<polygon fill="#c9d1d9" stroke="#c9d1d9" points="138.26,-166 132.26,-168.7 135.26,-166 132.26,-166 132.26,-166 132.26,-166 135.26,-166 132.26,-163.3 138.26,-166 138.26,-166"/>
</g>
<!-- JavaScript&#45;&gt;Jest -->
<g id="edge5" class="edge">
<title>JavaScript&#45;&gt;Jest</title>
<path fill="none" stroke="#c9d1d9" d="M35.44,-147.91C41.07,-136.46 49.91,-122.3 62,-114 82.62,-99.84 110.64,-94.55 132.18,-92.68"/>
<polygon fill="#c9d1d9" stroke="#c9d1d9" points="138.35,-92.22 132.57,-95.35 135.36,-92.44 132.37,-92.66 132.37,-92.66 132.37,-92.66 135.36,-92.44 132.17,-89.97 138.35,-92.22 138.35,-92.22"/>
</g>
<!-- JavaScript&#45;&gt;c6p &#45; log -->
<g id="edge17" class="edge">
<title>JavaScript&#45;&gt;c6p &#45; log</title>
<path fill="none" stroke="#c9d1d9" d="M37.6,-147.71C42.97,-136.95 49.47,-122.95 54,-110 58.98,-95.75 51.19,-87.53 62,-77 80.35,-59.12 109.51,-54.26 132.05,-53.49"/>
<polygon fill="#c9d1d9" stroke="#c9d1d9" points="138.21,-53.38 132.26,-56.19 135.21,-53.44 132.21,-53.49 132.21,-53.49 132.21,-53.49 135.21,-53.44 132.16,-50.79 138.21,-53.38 138.21,-53.38"/>
</g>
<!-- JavaScript&#45;&gt;Paper.js -->
<g id="edge19" class="edge">
<title>JavaScript&#45;&gt;Paper.js</title>
<path fill="none" stroke="#c9d1d9" d="M54.15,-178.17C56.78,-179.2 59.42,-180.16 62,-181 85.06,-188.48 111.88,-194.13 132.3,-197.83"/>
<polygon fill="#c9d1d9" stroke="#c9d1d9" points="138.42,-198.92 132.04,-200.53 135.47,-198.39 132.51,-197.87 132.51,-197.87 132.51,-197.87 135.47,-198.39 132.98,-195.21 138.42,-198.92 138.42,-198.92"/>
</g>
<!-- JavaScript&#45;&gt;Phaser -->
<g id="edge20" class="edge">
<title>JavaScript&#45;&gt;Phaser</title>
<path fill="none" stroke="#c9d1d9" d="M54.15,-153.83C56.78,-152.8 59.42,-151.84 62,-151 85.06,-143.52 111.88,-137.87 132.3,-134.17"/>
<polygon fill="#c9d1d9" stroke="#c9d1d9" points="138.42,-133.08 132.98,-136.79 135.47,-133.61 132.51,-134.13 132.51,-134.13 132.51,-134.13 135.47,-133.61 132.04,-131.47 138.42,-133.08 138.42,-133.08"/>
</g>
<!-- Python&#45;&gt;Flask -->
<g id="edge7" class="edge">
<title>Python&#45;&gt;Flask</title>
<path fill="none" stroke="#c9d1d9" d="M54.32,-425C76.51,-425 108.35,-425 132.1,-425"/>
<polygon fill="#c9d1d9" stroke="#c9d1d9" points="138.26,-425 132.26,-427.7 135.26,-425 132.26,-425 132.26,-425 132.26,-425 135.26,-425 132.26,-422.3 138.26,-425 138.26,-425"/>
</g>
<!-- Python&#45;&gt;Falcon -->
<g id="edge8" class="edge">
<title>Python&#45;&gt;Falcon</title>
<path fill="none" stroke="#c9d1d9" d="M54.15,-437.17C56.78,-438.2 59.42,-439.16 62,-440 85.06,-447.48 111.88,-453.13 132.3,-456.83"/>
<polygon fill="#c9d1d9" stroke="#c9d1d9" points="138.42,-457.92 132.04,-459.53 135.47,-457.39 132.51,-456.87 132.51,-456.87 132.51,-456.87 135.47,-457.39 132.98,-454.21 138.42,-457.92 138.42,-457.92"/>
</g>
<!-- Unit Testing&#45;&gt;Jest -->
<g id="edge6" class="edge">
<title>Unit Testing&#45;&gt;Jest</title>
<path fill="none" stroke="#c9d1d9" d="M54.32,-92C76.51,-92 108.35,-92 132.1,-92"/>
<polygon fill="#c9d1d9" stroke="#c9d1d9" points="138.26,-92 132.26,-94.7 135.26,-92 132.26,-92 132.26,-92 132.26,-92 135.26,-92 132.26,-89.3 138.26,-92 138.26,-92"/>
</g>
<!-- Vue&#45;&gt;Ön Maliyet -->
<g id="edge11" class="edge">
<title>Vue&#45;&gt;Ön Maliyet</title>
<path fill="none" stroke="#c9d1d9" d="M192.73,-351C216.22,-351 250.78,-351 276.21,-351"/>
<polygon fill="#c9d1d9" stroke="#c9d1d9" points="282.47,-351 276.47,-353.7 279.47,-351 276.47,-351 276.47,-351 276.47,-351 279.47,-351 276.47,-348.3 282.47,-351 282.47,-351"/>
</g>
<!-- Falcon&#45;&gt;Ön Maliyet -->
<g id="edge9" class="edge">
<title>Falcon&#45;&gt;Ön Maliyet</title>
<path fill="none" stroke="#c9d1d9" d="M192.83,-462.64C215.35,-461.85 247.45,-457.34 269,-440 289.02,-423.89 299.52,-395.73 304.76,-375.39"/>
<polygon fill="#c9d1d9" stroke="#c9d1d9" points="306.23,-369.35 307.44,-375.81 305.52,-372.26 304.81,-375.18 304.81,-375.18 304.81,-375.18 305.52,-372.26 302.19,-374.54 306.23,-369.35 306.23,-369.35"/>
</g>
<!-- Nginx&#45;&gt;PaxDict -->
<g id="edge12" class="edge">
<title>Nginx&#45;&gt;PaxDict</title>
<path fill="none" stroke="#c9d1d9" d="M54.32,-636.4C76.6,-627.42 108.62,-614.52 132.4,-604.93"/>
<polygon fill="#c9d1d9" stroke="#c9d1d9" points="138.26,-602.57 133.71,-607.32 135.48,-603.69 132.7,-604.81 132.7,-604.81 132.7,-604.81 135.48,-603.69 131.69,-602.31 138.26,-602.57 138.26,-602.57"/>
</g>
<!-- SaltStack&#45;&gt;PaxDict -->
<g id="edge13" class="edge">
<title>SaltStack&#45;&gt;PaxDict</title>
<path fill="none" stroke="#c9d1d9" d="M54.32,-606.53C76.51,-603.6 108.35,-599.4 132.1,-596.27"/>
<polygon fill="#c9d1d9" stroke="#c9d1d9" points="138.26,-595.46 132.67,-598.92 135.29,-595.85 132.31,-596.24 132.31,-596.24 132.31,-596.24 135.29,-595.85 131.96,-593.57 138.26,-595.46 138.26,-595.46"/>
</g>
<!-- PostgREST&#45;&gt;PaxDict -->
<g id="edge14" class="edge">
<title>PostgREST&#45;&gt;PaxDict</title>
<path fill="none" stroke="#c9d1d9" d="M54.32,-576.66C76.51,-579.75 108.35,-584.18 132.1,-587.49"/>
<polygon fill="#c9d1d9" stroke="#c9d1d9" points="138.26,-588.35 131.95,-590.19 135.29,-587.93 132.32,-587.52 132.32,-587.52 132.32,-587.52 135.29,-587.93 132.69,-584.85 138.26,-588.35 138.26,-588.35"/>
</g>
<!-- PostgreSQL&#45;&gt;PaxDict -->
<g id="edge15" class="edge">
<title>PostgreSQL&#45;&gt;PaxDict</title>
<path fill="none" stroke="#c9d1d9" d="M54.32,-546.8C76.7,-555.98 108.89,-569.19 132.71,-578.96"/>
<polygon fill="#c9d1d9" stroke="#c9d1d9" points="138.26,-581.24 131.69,-581.46 135.49,-580.1 132.71,-578.96 132.71,-578.96 132.71,-578.96 135.49,-580.1 133.74,-576.46 138.26,-581.24 138.26,-581.24"/>
</g>
<!-- SQLite&#45;&gt;Ön Maliyet -->
<g id="edge10" class="edge">
<title>SQLite&#45;&gt;Ön Maliyet</title>
<path fill="none" stroke="#c9d1d9" d="M192.88,-318.58C213.73,-322.47 243.48,-328.58 269,-336 271.43,-336.71 273.92,-337.49 276.42,-338.31"/>
<polygon fill="#c9d1d9" stroke="#c9d1d9" points="282.23,-340.3 275.68,-340.91 279.39,-339.33 276.55,-338.36 276.55,-338.36 276.55,-338.36 279.39,-339.33 277.42,-335.8 282.23,-340.3 282.23,-340.3"/>
</g>
<!-- SQLite&#45;&gt;Çelik Anahtar -->
<g id="edge28" class="edge">
<title>SQLite&#45;&gt;Çelik Anahtar</title>
<path fill="none" stroke="#c9d1d9" d="M192.88,-309.42C213.73,-305.53 243.48,-299.42 269,-292 269.85,-291.75 270.72,-291.49 271.59,-291.23"/>
<polygon fill="#c9d1d9" stroke="#c9d1d9" points="277.36,-289.38 272.47,-293.78 274.51,-290.29 271.65,-291.21 271.65,-291.21 271.65,-291.21 274.51,-290.29 270.83,-288.64 277.36,-289.38 277.36,-289.38"/>
</g>
<!-- Netlify&#45;&gt;c6p &#45; log -->
<g id="edge18" class="edge">
<title>Netlify&#45;&gt;c6p &#45; log</title>
<path fill="none" stroke="#c9d1d9" d="M54.32,-25.13C76.6,-31.17 108.62,-39.85 132.4,-46.3"/>
<polygon fill="#c9d1d9" stroke="#c9d1d9" points="138.26,-47.89 131.76,-48.92 135.37,-47.1 132.47,-46.32 132.47,-46.32 132.47,-46.32 135.37,-47.1 133.18,-43.71 138.26,-47.89 138.26,-47.89"/>
</g>
<!-- Hugo&#45;&gt;c6p &#45; log -->
<g id="edge16" class="edge">
<title>Hugo&#45;&gt;c6p &#45; log</title>
<path fill="none" stroke="#c9d1d9" d="M54.32,-55C76.51,-55 108.35,-55 132.1,-55"/>
<polygon fill="#c9d1d9" stroke="#c9d1d9" points="138.26,-55 132.26,-57.7 135.26,-55 132.26,-55 132.26,-55 132.26,-55 135.26,-55 132.26,-52.3 138.26,-55 138.26,-55"/>
</g>
<!-- C&#45;&gt;Introduction to Operating Systems -->
<g id="edge1" class="edge">
<title>C&#45;&gt;Introduction to Operating Systems</title>
<path fill="none" stroke="#c9d1d9" d="M54.32,-499C69,-499 87.92,-499 105.92,-499"/>
<polygon fill="#c9d1d9" stroke="#c9d1d9" points="111.98,-499 105.98,-501.7 108.98,-499 105.98,-499 105.98,-499 105.98,-499 108.98,-499 105.98,-496.3 111.98,-499 111.98,-499"/>
</g>
<!-- Paper.js&#45;&gt;Dot&#45;Slice -->
<g id="edge22" class="edge">
<title>Paper.js&#45;&gt;Dot&#45;Slice</title>
<path fill="none" stroke="#c9d1d9" d="M192.73,-199.7C216.51,-196.7 251.66,-192.28 277.17,-189.07"/>
<polygon fill="#c9d1d9" stroke="#c9d1d9" points="283.44,-188.28 277.82,-191.71 280.46,-188.66 277.48,-189.03 277.48,-189.03 277.48,-189.03 280.46,-188.66 277.15,-186.35 283.44,-188.28 283.44,-188.28"/>
</g>
<!-- Phaser&#45;&gt;Dot&#45;Slice -->
<g id="edge21" class="edge">
<title>Phaser&#45;&gt;Dot&#45;Slice</title>
<path fill="none" stroke="#c9d1d9" d="M192.92,-131.12C214.33,-133.66 244.8,-139.16 269,-151 275.19,-154.03 281.23,-158.2 286.67,-162.59"/>
<polygon fill="#c9d1d9" stroke="#c9d1d9" points="291.5,-166.65 285.17,-164.85 289.2,-164.72 286.91,-162.78 286.91,-162.78 286.91,-162.78 289.2,-164.72 288.65,-160.72 291.5,-166.65 291.5,-166.65"/>
</g>
<!-- Phaser&#45;&gt;Swinging Frog -->
<g id="edge23" class="edge">
<title>Phaser&#45;&gt;Swinging Frog</title>
<path fill="none" stroke="#c9d1d9" d="M192.73,-129C214.58,-129 246.02,-129 270.77,-129"/>
<polygon fill="#c9d1d9" stroke="#c9d1d9" points="276.91,-129 270.91,-131.7 273.91,-129 270.91,-129 270.91,-129 270.91,-129 273.91,-129 270.91,-126.3 276.91,-129 276.91,-129"/>
</g>
<!-- Standard ML&#45;&gt;Introduction to Programming Languages, Part A -->
<g id="edge24" class="edge">
<title>Standard ML&#45;&gt;Introduction to Programming Languages, Part A</title>
<path fill="none" stroke="#c9d1d9" d="M54.32,-684C54.96,-684 55.6,-684 56.26,-684"/>
<polygon fill="#c9d1d9" stroke="#c9d1d9" points="62.35,-684 56.35,-686.7 59.35,-684 56.35,-684 56.35,-684 56.35,-684 59.35,-684 56.35,-681.3 62.35,-684 62.35,-684"/>
</g>
<!-- Racket&#45;&gt;Introduction to Programming Languages, Part B -->
<g id="edge25" class="edge">
<title>Racket&#45;&gt;Introduction to Programming Languages, Part B</title>
<path fill="none" stroke="#c9d1d9" d="M54.32,-721C54.77,-721 55.22,-721 55.68,-721"/>
<polygon fill="#c9d1d9" stroke="#c9d1d9" points="61.84,-721 55.84,-723.7 58.84,-721 55.84,-721 55.84,-721 55.84,-721 58.84,-721 55.84,-718.3 61.84,-721 61.84,-721"/>
</g>
<!-- Ruby&#45;&gt;Introduction to Programming Languages, Part C -->
<g id="edge26" class="edge">
<title>Ruby&#45;&gt;Introduction to Programming Languages, Part C</title>
<path fill="none" stroke="#c9d1d9" d="M54.32,-758C55.08,-758 55.86,-758 56.64,-758"/>
<polygon fill="#c9d1d9" stroke="#c9d1d9" points="62.85,-758 56.85,-760.7 59.85,-758 56.85,-758 56.85,-758 56.85,-758 59.85,-758 56.85,-755.3 62.85,-758 62.85,-758"/>
</g>
<!-- Java&#45;&gt;Çelik Anahtar -->
<g id="edge27" class="edge">
<title>Java&#45;&gt;Çelik Anahtar</title>
<path fill="none" stroke="#c9d1d9" d="M192.73,-277C214.73,-277 246.45,-277 271.28,-277"/>
<polygon fill="#c9d1d9" stroke="#c9d1d9" points="277.43,-277 271.43,-279.7 274.43,-277 271.43,-277 271.43,-277 271.43,-277 274.43,-277 271.43,-274.3 277.43,-277 277.43,-277"/>
</g>
<!-- Android&#45;&gt;Çelik Anahtar -->
<g id="edge29" class="edge">
<title>Android&#45;&gt;Çelik Anahtar</title>
<path fill="none" stroke="#c9d1d9" d="M192.88,-244.58C213.73,-248.47 243.48,-254.58 269,-262 269.85,-262.25 270.72,-262.51 271.59,-262.77"/>
<polygon fill="#c9d1d9" stroke="#c9d1d9" points="277.36,-264.62 270.83,-265.36 274.51,-263.71 271.65,-262.79 271.65,-262.79 271.65,-262.79 274.51,-263.71 272.47,-260.22 277.36,-264.62 277.36,-264.62"/>
</g>
<!-- JavaScript -->
<g id="js" class="node language size&#45;7">
<title>JavaScript</title>
<text text-anchor="start" x="5" y="-163.6" font-family="BenchNine" font-size="13.00">JavaScript </text>
<text text-anchor="start" x="45" y="-163.6" font-family="BenchNine" font-weight="bold" font-size="13.00">7</text>
</g>
<!-- Python -->
<g id="python" class="node language size&#45;7">
<title>Python</title>
<text text-anchor="start" x="11" y="-422.6" font-family="BenchNine" font-size="13.00">Python </text>
<text text-anchor="start" x="39" y="-422.6" font-family="BenchNine" font-weight="bold" font-size="13.00">7</text>
</g>
<!-- Rust -->
<g id="rust" class="node language size&#45;4">
<title>Rust</title>
<text text-anchor="start" x="14.5" y="-459.9" font-family="BenchNine" font-size="12.00">Rust </text>
<text text-anchor="start" x="33.5" y="-459.9" font-family="BenchNine" font-weight="bold" font-size="12.00">4</text>
</g>
<!-- Unit Testing -->
<g id="unit" class="node method size&#45;4">
<title>Unit Testing</title>
<text text-anchor="start" x="2" y="-89.9" font-family="BenchNine" font-size="12.00">Unit Testing </text>
<text text-anchor="start" x="46" y="-89.9" font-family="BenchNine" font-weight="bold" font-size="12.00">4</text>
</g>
<!-- Introduction to Operating Systems -->
<g id="cs_os" class="node course size&#45;1">
<title>Introduction to Operating Systems</title>
<g id="a_cs_os"><a xlink:href="/docs/courses/operating_systems" xlink:title="&lt;font point&#45;size=&quot;10.5&quot;&gt;Introduction to Operating Systems &lt;b&gt;1&lt;/b&gt;&lt;/font&gt;">
<text text-anchor="start" x="113" y="-497.5" font-family="BenchNine" font-size="10.00">Introduction to Operating Systems </text>
<text text-anchor="start" x="215" y="-497.5" font-family="BenchNine" font-weight="bold" font-size="10.00">1</text>
</a>
</g>
</g>
<!-- React -->
<g id="react" class="node library size&#45;4">
<title>React</title>
<text text-anchor="start" x="151.5" y="-385.9" font-family="BenchNine" font-size="12.00">React </text>
<text text-anchor="start" x="173.5" y="-385.9" font-family="BenchNine" font-weight="bold" font-size="12.00">4</text>
</g>
<!-- Vue -->
<g id="vue" class="node library size&#45;8">
<title>Vue</title>
<text text-anchor="start" x="152.5" y="-348.3" font-family="BenchNine" font-size="14.00">Vue </text>
<text text-anchor="start" x="171.5" y="-348.3" font-family="BenchNine" font-weight="bold" font-size="14.00">8</text>
</g>
<!-- Cypress -->
<g id="cypress" class="node library size&#45;0">
<title>Cypress</title>
<text text-anchor="start" x="151.5" y="-164.5" font-family="BenchNine" font-size="10.00">Cypress </text>
<text text-anchor="start" x="174.5" y="-164.5" font-family="BenchNine" font-weight="bold" font-size="10.00">0</text>
</g>
<!-- Jest -->
<g id="jest" class="node library size&#45;3">
<title>Jest</title>
<text text-anchor="start" x="156" y="-90.2" font-family="BenchNine" font-size="11.00">Jest </text>
<text text-anchor="start" x="171" y="-90.2" font-family="BenchNine" font-weight="bold" font-size="11.00">3</text>
</g>
<!-- Flask -->
<g id="flask" class="node library size&#45;5">
<title>Flask</title>
<text text-anchor="start" x="153" y="-422.9" font-family="BenchNine" font-size="12.00">Flask </text>
<text text-anchor="start" x="172" y="-422.9" font-family="BenchNine" font-weight="bold" font-size="12.00">5</text>
</g>
<!-- Falcon -->
<g id="falcon" class="node library size&#45;8">
<title>Falcon</title>
<text text-anchor="start" x="147.5" y="-459.3" font-family="BenchNine" font-size="14.00">Falcon </text>
<text text-anchor="start" x="176.5" y="-459.3" font-family="BenchNine" font-weight="bold" font-size="14.00">8</text>
</g>
<!-- Ön Maliyet -->
<g id="maliyet" class="node project size&#45;8">
<title>Ön Maliyet</title>
<text text-anchor="start" x="283.5" y="-348.3" font-family="BenchNine" font-size="14.00">Ön Maliyet </text>
<text text-anchor="start" x="330.5" y="-348.3" font-family="BenchNine" font-weight="bold" font-size="14.00">8</text>
</g>
<!-- PaxDict -->
<g id="paxdict" class="node project size&#45;6">
<title>PaxDict</title>
<text text-anchor="start" x="147" y="-589.6" font-family="BenchNine" font-size="13.00">PaxDict </text>
<text text-anchor="start" x="178" y="-589.6" font-family="BenchNine" font-weight="bold" font-size="13.00">6</text>
</g>
<!-- Nginx -->
<g id="nginx" class="node library size&#45;3">
<title>Nginx</title>
<text text-anchor="start" x="14.5" y="-645.2" font-family="BenchNine" font-size="11.00">Nginx </text>
<text text-anchor="start" x="35.5" y="-645.2" font-family="BenchNine" font-weight="bold" font-size="11.00">3</text>
</g>
<!-- SaltStack -->
<g id="salt" class="node library size&#45;3">
<title>SaltStack</title>
<text text-anchor="start" x="8" y="-608.2" font-family="BenchNine" font-size="11.00">SaltStack </text>
<text text-anchor="start" x="42" y="-608.2" font-family="BenchNine" font-weight="bold" font-size="11.00">3</text>
</g>
<!-- PostgREST -->
<g id="postgrest" class="node library size&#45;6">
<title>PostgREST</title>
<text text-anchor="start" x="3" y="-570.6" font-family="BenchNine" font-size="13.00">PostgREST </text>
<text text-anchor="start" x="45" y="-570.6" font-family="BenchNine" font-weight="bold" font-size="13.00">6</text>
</g>
<!-- PostgreSQL -->
<g id="postgresql" class="node database size&#45;5">
<title>PostgreSQL</title>
<text text-anchor="start" x="2.5" y="-533.9" font-family="BenchNine" font-size="12.00">PostgreSQL </text>
<text text-anchor="start" x="45.5" y="-533.9" font-family="BenchNine" font-weight="bold" font-size="12.00">5</text>
</g>
<!-- SQLite -->
<g id="sqlite" class="node database size&#45;7">
<title>SQLite</title>
<text text-anchor="start" x="150" y="-311.6" font-family="BenchNine" font-size="13.00">SQLite </text>
<text text-anchor="start" x="177" y="-311.6" font-family="BenchNine" font-weight="bold" font-size="13.00">7</text>
</g>
<!-- c6p &#45; log -->
<g id="blog" class="node project size&#45;9">
<title>c6p &#45; log</title>
<text text-anchor="start" x="143.5" y="-52.3" font-family="BenchNine" font-size="14.00">c6p &#45; log </text>
<text text-anchor="start" x="180.5" y="-52.3" font-family="BenchNine" font-weight="bold" font-size="14.00">9</text>
</g>
<!-- Netlify -->
<g id="netlify" class="node stack size&#45;5">
<title>Netlify</title>
<text text-anchor="start" x="11" y="-15.9" font-family="BenchNine" font-size="12.00">Netlify </text>
<text text-anchor="start" x="37" y="-15.9" font-family="BenchNine" font-weight="bold" font-size="12.00">5</text>
</g>
<!-- Hugo -->
<g id="hugo" class="node library size&#45;8">
<title>Hugo</title>
<text text-anchor="start" x="11" y="-52.3" font-family="BenchNine" font-size="14.00">Hugo </text>
<text text-anchor="start" x="36" y="-52.3" font-family="BenchNine" font-weight="bold" font-size="14.00">8</text>
</g>
<!-- C -->
<g id="cpp" class="node language size&#45;5">
<title>C</title>
<text text-anchor="start" x="21" y="-496.9" font-family="BenchNine" font-size="12.00">C </text>
<text text-anchor="start" x="27" y="-496.9" font-family="BenchNine" font-weight="bold" font-size="12.00">5</text>
</g>
<!-- Paper.js -->
<g id="paper" class="node library size&#45;5">
<title>Paper.js</title>
<text text-anchor="start" x="147" y="-200.9" font-family="BenchNine" font-size="12.00">Paper.js </text>
<text text-anchor="start" x="178" y="-200.9" font-family="BenchNine" font-weight="bold" font-size="12.00">5</text>
</g>
<!-- Phaser -->
<g id="phaser" class="node library size&#45;7">
<title>Phaser</title>
<text text-anchor="start" x="149.5" y="-126.6" font-family="BenchNine" font-size="13.00">Phaser </text>
<text text-anchor="start" x="177.5" y="-126.6" font-family="BenchNine" font-weight="bold" font-size="13.00">7</text>
</g>
<!-- Dot&#45;Slice -->
<g id="dotslice" class="node project size&#45;9">
<title>Dot&#45;Slice</title>
<text text-anchor="start" x="287" y="-182.3" font-family="BenchNine" font-size="14.00">Dot&#45;Slice </text>
<text text-anchor="start" x="327" y="-182.3" font-family="BenchNine" font-weight="bold" font-size="14.00">9</text>
</g>
<!-- Swinging Frog -->
<g id="frog" class="node project size&#45;9">
<title>Swinging Frog</title>
<text text-anchor="start" x="278" y="-126.3" font-family="BenchNine" font-size="14.00">Swinging Frog </text>
<text text-anchor="start" x="336" y="-126.3" font-family="BenchNine" font-weight="bold" font-size="14.00">9</text>
</g>
<!-- Standard ML -->
<g id="sml" class="node language size&#45;4">
<title>Standard ML</title>
<text text-anchor="start" x="1.5" y="-681.9" font-family="BenchNine" font-size="12.00">Standard ML </text>
<text text-anchor="start" x="46.5" y="-681.9" font-family="BenchNine" font-weight="bold" font-size="12.00">4</text>
</g>
<!-- Racket -->
<g id="racket" class="node language size&#45;4">
<title>Racket</title>
<text text-anchor="start" x="11.5" y="-718.9" font-family="BenchNine" font-size="12.00">Racket </text>
<text text-anchor="start" x="36.5" y="-718.9" font-family="BenchNine" font-weight="bold" font-size="12.00">4</text>
</g>
<!-- Ruby -->
<g id="ruby" class="node language size&#45;4">
<title>Ruby</title>
<text text-anchor="start" x="14" y="-755.9" font-family="BenchNine" font-size="12.00">Ruby </text>
<text text-anchor="start" x="34" y="-755.9" font-family="BenchNine" font-weight="bold" font-size="12.00">4</text>
</g>
<!-- Introduction to Programming Languages, Part A -->
<g id="cs_pla" class="node course size&#45;9">
<title>Introduction to Programming Languages, Part A</title>
<text text-anchor="start" x="63.5" y="-681.3" font-family="BenchNine" font-size="14.00">Introduction to Programming Languages, Part A </text>
<text text-anchor="start" x="260.5" y="-681.3" font-family="BenchNine" font-weight="bold" font-size="14.00">9</text>
</g>
<!-- Introduction to Programming Languages, Part B -->
<g id="cs_plb" class="node course size&#45;9">
<title>Introduction to Programming Languages, Part B</title>
<text text-anchor="start" x="63" y="-718.3" font-family="BenchNine" font-size="14.00">Introduction to Programming Languages, Part B </text>
<text text-anchor="start" x="261" y="-718.3" font-family="BenchNine" font-weight="bold" font-size="14.00">9</text>
</g>
<!-- Introduction to Programming Languages, Part C -->
<g id="cs_plc" class="node course size&#45;9">
<title>Introduction to Programming Languages, Part C</title>
<text text-anchor="start" x="64" y="-755.3" font-family="BenchNine" font-size="14.00">Introduction to Programming Languages, Part C </text>
<text text-anchor="start" x="260" y="-755.3" font-family="BenchNine" font-weight="bold" font-size="14.00">9</text>
</g>
<!-- Java -->
<g id="java" class="node language size&#45;5">
<title>Java</title>
<text text-anchor="start" x="154.5" y="-274.9" font-family="BenchNine" font-size="12.00">Java </text>
<text text-anchor="start" x="170.5" y="-274.9" font-family="BenchNine" font-weight="bold" font-size="12.00">5</text>
</g>
<!-- Çelik Anahtar -->
<g id="celik" class="node project size&#45;8">
<title>Çelik Anahtar</title>
<text text-anchor="start" x="278.5" y="-274.3" font-family="BenchNine" font-size="14.00">Çelik Anahtar </text>
<text text-anchor="start" x="335.5" y="-274.3" font-family="BenchNine" font-weight="bold" font-size="14.00">8</text>
</g>
<!-- Android -->
<g id="android" class="node stack size&#45;4">
<title>Android</title>
<text text-anchor="start" x="147.5" y="-237.9" font-family="BenchNine" font-size="12.00">Android </text>
<text text-anchor="start" x="177.5" y="-237.9" font-family="BenchNine" font-weight="bold" font-size="12.00">4</text>
</g>
</g>
</svg>
