<?xml version="1.0" encoding="UTF-8" standalone="no"?>
<!DOCTYPE svg PUBLIC "-//W3C//DTD SVG 1.1//EN"
 "http://www.w3.org/Graphics/SVG/1.1/DTD/svg11.dtd">
<!-- Generated by graphviz version 2.44.1 (20200629.0846)
 -->
<!-- Title: skills Pages: 1 -->
<svg width="406pt" height="784pt"
 viewBox="0.00 0.00 406.00 784.00" xmlns="http://www.w3.org/2000/svg" xmlns:xlink="http://www.w3.org/1999/xlink">
<g id="graph0" class="graph" transform="scale(1 1) rotate(0) translate(4 780)">
<title>skills</title>
<polygon fill="white" stroke="transparent" points="-4,4 -4,-780 402,-780 402,4 -4,4"/>
<!-- JavaScript&#45;&gt;React -->
<g id="edge2" class="edge">
<title>JavaScript&#45;&gt;React</title>
<path fill="none" stroke="#c9d1d9" d="M34,-184.26C36.83,-228.68 46.38,-340.59 72,-366 94.19,-388.01 130.88,-391.78 157.46,-391.13"/>
<polygon fill="#c9d1d9" stroke="#c9d1d9" points="163.65,-390.9 157.76,-393.82 160.65,-391.01 157.65,-391.12 157.65,-391.12 157.65,-391.12 160.65,-391.01 157.55,-388.42 163.65,-390.9 163.65,-390.9"/>
</g>
<!-- JavaScript&#45;&gt;Vue -->
<g id="edge3" class="edge">
<title>JavaScript&#45;&gt;Vue</title>
<path fill="none" stroke="#c9d1d9" d="M34.88,-184.25C39.21,-222.5 51.12,-309.15 72,-329 94.65,-350.53 131.26,-354.39 157.7,-353.89"/>
<polygon fill="#c9d1d9" stroke="#c9d1d9" points="163.85,-353.69 157.94,-356.58 160.85,-353.78 157.85,-353.88 157.85,-353.88 157.85,-353.88 160.85,-353.78 157.77,-351.18 163.85,-353.69 163.85,-353.69"/>
</g>
<!-- JavaScript&#45;&gt;Cypress -->
<g id="edge4" class="edge">
<title>JavaScript&#45;&gt;Cypress</title>
<path fill="none" stroke="#c9d1d9" d="M61.07,-166C88.21,-166 129.3,-166 157.77,-166"/>
<polygon fill="#c9d1d9" stroke="#c9d1d9" points="164,-166 158,-168.7 161,-166 158,-166 158,-166 158,-166 161,-166 158,-163.3 164,-166 164,-166"/>
</g>
<!-- JavaScript&#45;&gt;Jest -->
<g id="edge5" class="edge">
<title>JavaScript&#45;&gt;Jest</title>
<path fill="none" stroke="#c9d1d9" d="M42.08,-147.77C48.77,-136.27 58.96,-122.1 72,-114 97.78,-97.98 132.43,-93.07 157.5,-91.81"/>
<polygon fill="#c9d1d9" stroke="#c9d1d9" points="163.66,-91.57 157.77,-94.5 160.66,-91.69 157.66,-91.81 157.66,-91.81 157.66,-91.81 160.66,-91.69 157.56,-89.11 163.66,-91.57 163.66,-91.57"/>
</g>
<!-- JavaScript&#45;&gt;c6p &#45; log -->
<g id="edge17" class="edge">
<title>JavaScript&#45;&gt;c6p &#45; log</title>
<path fill="none" stroke="#c9d1d9" d="M44.63,-147.94C51.08,-137.25 58.83,-123.25 64,-110 69.48,-95.94 61.05,-87.38 72,-77 94.68,-55.5 131.29,-51.64 157.72,-52.13"/>
<polygon fill="#c9d1d9" stroke="#c9d1d9" points="163.87,-52.33 157.78,-54.83 160.87,-52.23 157.87,-52.14 157.87,-52.14 157.87,-52.14 160.87,-52.23 157.95,-49.44 163.87,-52.33 163.87,-52.33"/>
</g>
<!-- JavaScript&#45;&gt;Paper.js -->
<g id="edge19" class="edge">
<title>JavaScript&#45;&gt;Paper.js</title>
<path fill="none" stroke="#c9d1d9" d="M61.34,-177.59C64.9,-178.84 68.51,-180.01 72,-181 100.53,-189.07 133.8,-194.97 157.72,-198.61"/>
<polygon fill="#c9d1d9" stroke="#c9d1d9" points="163.9,-199.54 157.57,-201.32 160.94,-199.09 157.97,-198.65 157.97,-198.65 157.97,-198.65 160.94,-199.09 158.37,-195.98 163.9,-199.54 163.9,-199.54"/>
</g>
<!-- JavaScript&#45;&gt;Phaser -->
<g id="edge20" class="edge">
<title>JavaScript&#45;&gt;Phaser</title>
<path fill="none" stroke="#c9d1d9" d="M61.34,-154.41C64.9,-153.16 68.51,-151.99 72,-151 100.53,-142.93 133.8,-137.03 157.72,-133.39"/>
<polygon fill="#c9d1d9" stroke="#c9d1d9" points="163.9,-132.46 158.37,-136.02 160.94,-132.91 157.97,-133.35 157.97,-133.35 157.97,-133.35 160.94,-132.91 157.57,-130.68 163.9,-132.46 163.9,-132.46"/>
</g>
<!-- Python&#45;&gt;Flask -->
<g id="edge7" class="edge">
<title>Python&#45;&gt;Flask</title>
<path fill="none" stroke="#c9d1d9" d="M59.28,-425C86.3,-425 128.44,-425 157.53,-425"/>
<polygon fill="#c9d1d9" stroke="#c9d1d9" points="163.9,-425 157.9,-427.7 160.9,-425 157.9,-425 157.9,-425 157.9,-425 160.9,-425 157.9,-422.3 163.9,-425 163.9,-425"/>
</g>
<!-- Python&#45;&gt;Falcon -->
<g id="edge8" class="edge">
<title>Python&#45;&gt;Falcon</title>
<path fill="none" stroke="#c9d1d9" d="M59.21,-435.83C63.44,-437.36 67.81,-438.81 72,-440 100.53,-448.07 133.8,-453.97 157.72,-457.61"/>
<polygon fill="#c9d1d9" stroke="#c9d1d9" points="163.9,-458.54 157.57,-460.32 160.94,-458.09 157.97,-457.65 157.97,-457.65 157.97,-457.65 160.94,-458.09 158.37,-454.98 163.9,-458.54 163.9,-458.54"/>
</g>
<!-- Unit Testing&#45;&gt;Jest -->
<g id="edge6" class="edge">
<title>Unit Testing&#45;&gt;Jest</title>
<path fill="none" stroke="#c9d1d9" d="M62.53,-92C89.7,-92 129.9,-92 157.86,-92"/>
<polygon fill="#c9d1d9" stroke="#c9d1d9" points="163.99,-92 157.99,-94.7 160.99,-92 157.99,-92 157.99,-92 157.99,-92 160.99,-92 157.99,-89.3 163.99,-92 163.99,-92"/>
</g>
<!-- Vue&#45;&gt;Ön Maliyet -->
<g id="edge11" class="edge">
<title>Vue&#45;&gt;Ön Maliyet</title>
<path fill="none" stroke="#c9d1d9" d="M218.14,-351C245.58,-351 288.93,-351 319.9,-351"/>
<polygon fill="#c9d1d9" stroke="#c9d1d9" points="325.91,-351 319.91,-353.7 322.91,-351 319.91,-351 319.91,-351 319.91,-351 322.91,-351 319.91,-348.3 325.91,-351 325.91,-351"/>
</g>
<!-- Falcon&#45;&gt;Ön Maliyet -->
<g id="edge9" class="edge">
<title>Falcon&#45;&gt;Ön Maliyet</title>
<path fill="none" stroke="#c9d1d9" d="M218.01,-463.38C243.77,-463.42 283.15,-459.77 310,-440 331.52,-424.16 344.1,-395.49 350.74,-374.97"/>
<polygon fill="#c9d1d9" stroke="#c9d1d9" points="352.54,-369.15 353.35,-375.68 351.65,-372.02 350.77,-374.88 350.77,-374.88 350.77,-374.88 351.65,-372.02 348.19,-374.09 352.54,-369.15 352.54,-369.15"/>
</g>
<!-- Nginx&#45;&gt;PaxDict -->
<g id="edge12" class="edge">
<title>Nginx&#45;&gt;PaxDict</title>
<path fill="none" stroke="#c9d1d9" d="M59.28,-637.79C86.42,-628.29 128.79,-613.44 157.9,-603.25"/>
<polygon fill="#c9d1d9" stroke="#c9d1d9" points="163.9,-601.14 159.13,-605.68 161.07,-602.14 158.24,-603.13 158.24,-603.13 158.24,-603.13 161.07,-602.14 157.34,-600.58 163.9,-601.14 163.9,-601.14"/>
</g>
<!-- SaltStack&#45;&gt;PaxDict -->
<g id="edge13" class="edge">
<title>SaltStack&#45;&gt;PaxDict</title>
<path fill="none" stroke="#c9d1d9" d="M59.28,-606.99C86.42,-603.88 128.79,-599.02 157.9,-595.68"/>
<polygon fill="#c9d1d9" stroke="#c9d1d9" points="163.9,-594.99 158.24,-598.36 160.92,-595.33 157.94,-595.68 157.94,-595.68 157.94,-595.68 160.92,-595.33 157.63,-592.99 163.9,-594.99 163.9,-594.99"/>
</g>
<!-- PostgREST&#45;&gt;PaxDict -->
<g id="edge14" class="edge">
<title>PostgREST&#45;&gt;PaxDict</title>
<path fill="none" stroke="#c9d1d9" d="M63.64,-576.71C90.77,-579.99 130.23,-584.77 157.82,-588.11"/>
<polygon fill="#c9d1d9" stroke="#c9d1d9" points="163.86,-588.84 157.58,-590.8 160.88,-588.48 157.9,-588.12 157.9,-588.12 157.9,-588.12 160.88,-588.48 158.23,-585.44 163.86,-588.84 163.86,-588.84"/>
</g>
<!-- PostgreSQL&#45;&gt;PaxDict -->
<g id="edge15" class="edge">
<title>PostgreSQL&#45;&gt;PaxDict</title>
<path fill="none" stroke="#c9d1d9" d="M62.53,-546.53C89.81,-556.26 130.24,-570.68 158.22,-580.66"/>
<polygon fill="#c9d1d9" stroke="#c9d1d9" points="163.99,-582.72 157.43,-583.25 161.16,-581.71 158.34,-580.71 158.34,-580.71 158.34,-580.71 161.16,-581.71 159.24,-578.16 163.99,-582.72 163.99,-582.72"/>
</g>
<!-- SQLite&#45;&gt;Ön Maliyet -->
<g id="edge10" class="edge">
<title>SQLite&#45;&gt;Ön Maliyet</title>
<path fill="none" stroke="#c9d1d9" d="M218.45,-317.96C242.5,-321.8 278.88,-328.17 310,-336 313.22,-336.81 316.54,-337.72 319.86,-338.68"/>
<polygon fill="#c9d1d9" stroke="#c9d1d9" points="325.81,-340.45 319.29,-341.32 322.93,-339.59 320.06,-338.74 320.06,-338.74 320.06,-338.74 322.93,-339.59 320.83,-336.15 325.81,-340.45 325.81,-340.45"/>
</g>
<!-- SQLite&#45;&gt;Çelik Anahtar -->
<g id="edge28" class="edge">
<title>SQLite&#45;&gt;Çelik Anahtar</title>
<path fill="none" stroke="#c9d1d9" d="M218.45,-310.04C242.5,-306.2 278.88,-299.83 310,-292 311.32,-291.67 312.65,-291.32 313.99,-290.96"/>
<polygon fill="#c9d1d9" stroke="#c9d1d9" points="319.92,-289.3 314.87,-293.52 317.03,-290.11 314.14,-290.92 314.14,-290.92 314.14,-290.92 317.03,-290.11 313.42,-288.32 319.92,-289.3 319.92,-289.3"/>
</g>
<!-- Netlify&#45;&gt;c6p &#45; log -->
<g id="edge18" class="edge">
<title>Netlify&#45;&gt;c6p &#45; log</title>
<path fill="none" stroke="#c9d1d9" d="M59.28,-24.19C86.42,-30.59 128.79,-40.58 157.9,-47.43"/>
<polygon fill="#c9d1d9" stroke="#c9d1d9" points="163.9,-48.85 157.44,-50.1 160.98,-48.16 158.06,-47.47 158.06,-47.47 158.06,-47.47 160.98,-48.16 158.68,-44.84 163.9,-48.85 163.9,-48.85"/>
</g>
<!-- Hugo&#45;&gt;c6p &#45; log -->
<g id="edge16" class="edge">
<title>Hugo&#45;&gt;c6p &#45; log</title>
<path fill="none" stroke="#c9d1d9" d="M59.28,-55C86.3,-55 128.44,-55 157.53,-55"/>
<polygon fill="#c9d1d9" stroke="#c9d1d9" points="163.9,-55 157.9,-57.7 160.9,-55 157.9,-55 157.9,-55 157.9,-55 160.9,-55 157.9,-52.3 163.9,-55 163.9,-55"/>
</g>
<!-- C&#45;&gt;Introduction to Operating Systems -->
<g id="edge1" class="edge">
<title>C&#45;&gt;Introduction to Operating Systems</title>
<path fill="none" stroke="#c9d1d9" d="M59.28,-499C77.79,-499 103.39,-499 127.03,-499"/>
<polygon fill="#c9d1d9" stroke="#c9d1d9" points="133.32,-499 127.32,-501.7 130.32,-499 127.32,-499 127.32,-499 127.32,-499 130.32,-499 127.32,-496.3 133.32,-499 133.32,-499"/>
</g>
<!-- Paper.js&#45;&gt;Dot&#45;Slice -->
<g id="edge22" class="edge">
<title>Paper.js&#45;&gt;Dot&#45;Slice</title>
<path fill="none" stroke="#c9d1d9" d="M218.14,-200.15C246.94,-197.01 293.28,-191.95 324.42,-188.55"/>
<polygon fill="#c9d1d9" stroke="#c9d1d9" points="330.43,-187.9 324.76,-191.23 327.45,-188.22 324.47,-188.55 324.47,-188.55 324.47,-188.55 327.45,-188.22 324.17,-185.87 330.43,-187.9 330.43,-187.9"/>
</g>
<!-- Phaser&#45;&gt;Dot&#45;Slice -->
<g id="edge21" class="edge">
<title>Phaser&#45;&gt;Dot&#45;Slice</title>
<path fill="none" stroke="#c9d1d9" d="M218.27,-130.58C242.84,-132.82 280.12,-138.18 310,-151 317.38,-154.16 324.71,-158.65 331.32,-163.34"/>
<polygon fill="#c9d1d9" stroke="#c9d1d9" points="336.22,-166.93 329.79,-165.56 333.8,-165.16 331.39,-163.38 331.39,-163.38 331.39,-163.38 333.8,-165.16 332.98,-161.21 336.22,-166.93 336.22,-166.93"/>
</g>
<!-- Phaser&#45;&gt;Swinging Frog -->
<g id="edge23" class="edge">
<title>Phaser&#45;&gt;Swinging Frog</title>
<path fill="none" stroke="#c9d1d9" d="M218.14,-129C243.17,-129 281.45,-129 311.48,-129"/>
<polygon fill="#c9d1d9" stroke="#c9d1d9" points="317.76,-129 311.76,-131.7 314.76,-129 311.76,-129 311.76,-129 311.76,-129 314.76,-129 311.76,-126.3 317.76,-129 317.76,-129"/>
</g>
<!-- Standard ML&#45;&gt;Introduction to Programming Languages, Part A -->
<g id="edge24" class="edge">
<title>Standard ML&#45;&gt;Introduction to Programming Languages, Part A</title>
<path fill="none" stroke="#c9d1d9" d="M64.02,-684C64.49,-684 64.96,-684 65.44,-684"/>
<polygon fill="#c9d1d9" stroke="#c9d1d9" points="71.82,-684 65.82,-686.7 68.82,-684 65.82,-684 65.82,-684 65.82,-684 68.82,-684 65.82,-681.3 71.82,-684 71.82,-684"/>
</g>
<!-- Racket&#45;&gt;Introduction to Programming Languages, Part B -->
<g id="edge25" class="edge">
<title>Racket&#45;&gt;Introduction to Programming Languages, Part B</title>
<path fill="none" stroke="#c9d1d9" d="M59.28,-721C61.37,-721 63.54,-721 65.8,-721"/>
<polygon fill="#c9d1d9" stroke="#c9d1d9" points="71.93,-721 65.93,-723.7 68.93,-721 65.93,-721 65.93,-721 65.93,-721 68.93,-721 65.93,-718.3 71.93,-721 71.93,-721"/>
</g>
<!-- Ruby&#45;&gt;Introduction to Programming Languages, Part C -->
<g id="edge26" class="edge">
<title>Ruby&#45;&gt;Introduction to Programming Languages, Part C</title>
<path fill="none" stroke="#c9d1d9" d="M59.28,-758C61.37,-758 63.54,-758 65.8,-758"/>
<polygon fill="#c9d1d9" stroke="#c9d1d9" points="71.93,-758 65.93,-760.7 68.93,-758 65.93,-758 65.93,-758 65.93,-758 68.93,-758 65.93,-755.3 71.93,-758 71.93,-758"/>
</g>
<!-- Java&#45;&gt;Çelik Anahtar -->
<g id="edge27" class="edge">
<title>Java&#45;&gt;Çelik Anahtar</title>
<path fill="none" stroke="#c9d1d9" d="M218.14,-277C243.77,-277 283.28,-277 313.61,-277"/>
<polygon fill="#c9d1d9" stroke="#c9d1d9" points="319.93,-277 313.93,-279.7 316.93,-277 313.93,-277 313.93,-277 313.93,-277 316.93,-277 313.93,-274.3 319.93,-277 319.93,-277"/>
</g>
<!-- Android&#45;&gt;Çelik Anahtar -->
<g id="edge29" class="edge">
<title>Android&#45;&gt;Çelik Anahtar</title>
<path fill="none" stroke="#c9d1d9" d="M218.45,-243.96C242.5,-247.8 278.88,-254.17 310,-262 311.32,-262.33 312.65,-262.68 313.99,-263.04"/>
<polygon fill="#c9d1d9" stroke="#c9d1d9" points="319.92,-264.7 313.42,-265.68 317.03,-263.89 314.14,-263.08 314.14,-263.08 314.14,-263.08 317.03,-263.89 314.87,-260.48 319.92,-264.7 319.92,-264.7"/>
</g>
<!-- JavaScript -->
<g id="js" class="node language size&#45;7">
<title>JavaScript</title>
<text text-anchor="start" x="4" y="-163.9" font-family="Arial Narrow" font-size="12.00">JavaScript </text>
<text text-anchor="start" x="54" y="-163.9" font-family="Arial Narrow" font-weight="bold" font-size="12.00">7</text>
</g>
<!-- Python -->
<g id="python" class="node language size&#45;7">
<title>Python</title>
<text text-anchor="start" x="12" y="-422.9" font-family="Arial Narrow" font-size="12.00">Python </text>
<text text-anchor="start" x="46" y="-422.9" font-family="Arial Narrow" font-weight="bold" font-size="12.00">7</text>
</g>
<!-- Rust -->
<g id="rust" class="node language size&#45;4">
<title>Rust</title>
<text text-anchor="start" x="18" y="-460.2" font-family="Arial Narrow" font-size="11.00">Rust </text>
<text text-anchor="start" x="40" y="-460.2" font-family="Arial Narrow" font-weight="bold" font-size="11.00">4</text>
</g>
<!-- Unit Testing -->
<g id="unit" class="node method size&#45;4">
<title>Unit Testing</title>
<text text-anchor="start" x="2.5" y="-90.2" font-family="Arial Narrow" font-size="11.00">Unit Testing </text>
<text text-anchor="start" x="55.5" y="-90.2" font-family="Arial Narrow" font-weight="bold" font-size="11.00">4</text>
</g>
<!-- Introduction to Operating Systems -->
<g id="cs_os" class="node course size&#45;1">
<title>Introduction to Operating Systems</title>
<g id="a_cs_os"><a xlink:href="/docs/courses/operating_systems" xlink:title="&lt;font point&#45;size=&quot;9.5&quot;&gt;Introduction to Operating Systems &lt;b&gt;1&lt;/b&gt;&lt;/font&gt;">
<text text-anchor="start" x="134.5" y="-497.8" font-family="Arial Narrow" font-size="9.00">Introduction to Operating Systems </text>
<text text-anchor="start" x="243.5" y="-497.8" font-family="Arial Narrow" font-weight="bold" font-size="9.00">1</text>
</a>
</g>
</g>
<!-- React -->
<g id="react" class="node library size&#45;4">
<title>React</title>
<text text-anchor="start" x="174" y="-386.2" font-family="Arial Narrow" font-size="11.00">React </text>
<text text-anchor="start" x="202" y="-386.2" font-family="Arial Narrow" font-weight="bold" font-size="11.00">4</text>
</g>
<!-- Vue -->
<g id="vue" class="node library size&#45;8">
<title>Vue</title>
<text text-anchor="start" x="176.5" y="-348.6" font-family="Arial Narrow" font-size="13.00">Vue </text>
<text text-anchor="start" x="198.5" y="-348.6" font-family="Arial Narrow" font-weight="bold" font-size="13.00">8</text>
</g>
<!-- Cypress -->
<g id="cypress" class="node library size&#45;0">
<title>Cypress</title>
<text text-anchor="start" x="173.5" y="-164.8" font-family="Arial Narrow" font-size="9.00">Cypress </text>
<text text-anchor="start" x="204.5" y="-164.8" font-family="Arial Narrow" font-weight="bold" font-size="9.00">0</text>
</g>
<!-- Jest -->
<g id="jest" class="node library size&#45;3">
<title>Jest</title>
<text text-anchor="start" x="180.5" y="-90.5" font-family="Arial Narrow" font-size="10.00">Jest </text>
<text text-anchor="start" x="196.5" y="-90.5" font-family="Arial Narrow" font-weight="bold" font-size="10.00">3</text>
</g>
<!-- Flask -->
<g id="flask" class="node library size&#45;5">
<title>Flask</title>
<text text-anchor="start" x="175.5" y="-423.2" font-family="Arial Narrow" font-size="11.00">Flask </text>
<text text-anchor="start" x="200.5" y="-423.2" font-family="Arial Narrow" font-weight="bold" font-size="11.00">5</text>
</g>
<!-- Falcon -->
<g id="falcon" class="node library size&#45;8">
<title>Falcon</title>
<text text-anchor="start" x="169.5" y="-459.6" font-family="Arial Narrow" font-size="13.00">Falcon </text>
<text text-anchor="start" x="205.5" y="-459.6" font-family="Arial Narrow" font-weight="bold" font-size="13.00">8</text>
</g>
<!-- Ön Maliyet -->
<g id="maliyet" class="node project size&#45;8">
<title>Ön Maliyet</title>
<text text-anchor="start" x="327" y="-348.6" font-family="Arial Narrow" font-size="13.00">Ön Maliyet </text>
<text text-anchor="start" x="382" y="-348.6" font-family="Arial Narrow" font-weight="bold" font-size="13.00">8</text>
</g>
<!-- PaxDict -->
<g id="paxdict" class="node project size&#45;6">
<title>PaxDict</title>
<text text-anchor="start" x="169.5" y="-589.9" font-family="Arial Narrow" font-size="12.00">PaxDict </text>
<text text-anchor="start" x="206.5" y="-589.9" font-family="Arial Narrow" font-weight="bold" font-size="12.00">6</text>
</g>
<!-- Nginx -->
<g id="nginx" class="node library size&#45;3">
<title>Nginx</title>
<text text-anchor="start" x="17.5" y="-645.5" font-family="Arial Narrow" font-size="10.00">Nginx </text>
<text text-anchor="start" x="41.5" y="-645.5" font-family="Arial Narrow" font-weight="bold" font-size="10.00">3</text>
</g>
<!-- SaltStack -->
<g id="salt" class="node library size&#45;3">
<title>SaltStack</title>
<text text-anchor="start" x="12.5" y="-608.5" font-family="Arial Narrow" font-size="10.00">SaltStack </text>
<text text-anchor="start" x="46.5" y="-608.5" font-family="Arial Narrow" font-weight="bold" font-size="10.00">3</text>
</g>
<!-- PostgREST -->
<g id="postgrest" class="node library size&#45;6">
<title>PostgREST</title>
<text text-anchor="start" x="1.5" y="-570.9" font-family="Arial Narrow" font-size="12.00">PostgREST </text>
<text text-anchor="start" x="56.5" y="-570.9" font-family="Arial Narrow" font-weight="bold" font-size="12.00">6</text>
</g>
<!-- PostgreSQL -->
<g id="postgresql" class="node database size&#45;5">
<title>PostgreSQL</title>
<text text-anchor="start" x="2.5" y="-534.2" font-family="Arial Narrow" font-size="11.00">PostgreSQL </text>
<text text-anchor="start" x="55.5" y="-534.2" font-family="Arial Narrow" font-weight="bold" font-size="11.00">5</text>
</g>
<!-- SQLite -->
<g id="sqlite" class="node database size&#45;7">
<title>SQLite</title>
<text text-anchor="start" x="171" y="-311.9" font-family="Arial Narrow" font-size="12.00">SQLite </text>
<text text-anchor="start" x="205" y="-311.9" font-family="Arial Narrow" font-weight="bold" font-size="12.00">7</text>
</g>
<!-- c6p &#45; log -->
<g id="blog" class="node project size&#45;9">
<title>c6p &#45; log</title>
<text text-anchor="start" x="165" y="-52.6" font-family="Arial Narrow" font-size="13.00">c6p &#45; log </text>
<text text-anchor="start" x="210" y="-52.6" font-family="Arial Narrow" font-weight="bold" font-size="13.00">9</text>
</g>
<!-- Netlify -->
<g id="netlify" class="node stack size&#45;5">
<title>Netlify</title>
<text text-anchor="start" x="15" y="-16.2" font-family="Arial Narrow" font-size="11.00">Netlify </text>
<text text-anchor="start" x="43" y="-16.2" font-family="Arial Narrow" font-weight="bold" font-size="11.00">5</text>
</g>
<!-- Hugo -->
<g id="hugo" class="node library size&#45;8">
<title>Hugo</title>
<text text-anchor="start" x="14" y="-52.6" font-family="Arial Narrow" font-size="13.00">Hugo </text>
<text text-anchor="start" x="43" y="-52.6" font-family="Arial Narrow" font-weight="bold" font-size="13.00">8</text>
</g>
<!-- C -->
<g id="cpp" class="node language size&#45;5">
<title>C</title>
<text text-anchor="start" x="24" y="-497.2" font-family="Arial Narrow" font-size="11.00">C </text>
<text text-anchor="start" x="34" y="-497.2" font-family="Arial Narrow" font-weight="bold" font-size="11.00">5</text>
</g>
<!-- Paper.js -->
<g id="paper" class="node library size&#45;5">
<title>Paper.js</title>
<text text-anchor="start" x="169.5" y="-201.2" font-family="Arial Narrow" font-size="11.00">Paper.js </text>
<text text-anchor="start" x="206.5" y="-201.2" font-family="Arial Narrow" font-weight="bold" font-size="11.00">5</text>
</g>
<!-- Phaser -->
<g id="phaser" class="node library size&#45;7">
<title>Phaser</title>
<text text-anchor="start" x="170.5" y="-126.9" font-family="Arial Narrow" font-size="12.00">Phaser </text>
<text text-anchor="start" x="205.5" y="-126.9" font-family="Arial Narrow" font-weight="bold" font-size="12.00">7</text>
</g>
<!-- Dot&#45;Slice -->
<g id="dotslice" class="node project size&#45;9">
<title>Dot&#45;Slice</title>
<text text-anchor="start" x="331.5" y="-182.6" font-family="Arial Narrow" font-size="13.00">Dot&#45;Slice </text>
<text text-anchor="start" x="377.5" y="-182.6" font-family="Arial Narrow" font-weight="bold" font-size="13.00">9</text>
</g>
<!-- Swinging Frog -->
<g id="frog" class="node project size&#45;9">
<title>Swinging Frog</title>
<text text-anchor="start" x="319" y="-126.6" font-family="Arial Narrow" font-size="13.00">Swinging Frog </text>
<text text-anchor="start" x="390" y="-126.6" font-family="Arial Narrow" font-weight="bold" font-size="13.00">9</text>
</g>
<!-- Standard ML -->
<g id="sml" class="node language size&#45;4">
<title>Standard ML</title>
<text text-anchor="start" x="1" y="-682.2" font-family="Arial Narrow" font-size="11.00">Standard ML </text>
<text text-anchor="start" x="57" y="-682.2" font-family="Arial Narrow" font-weight="bold" font-size="11.00">4</text>
</g>
<!-- Racket -->
<g id="racket" class="node language size&#45;4">
<title>Racket</title>
<text text-anchor="start" x="13" y="-719.2" font-family="Arial Narrow" font-size="11.00">Racket </text>
<text text-anchor="start" x="45" y="-719.2" font-family="Arial Narrow" font-weight="bold" font-size="11.00">4</text>
</g>
<!-- Ruby -->
<g id="ruby" class="node language size&#45;4">
<title>Ruby</title>
<text text-anchor="start" x="17" y="-756.2" font-family="Arial Narrow" font-size="11.00">Ruby </text>
<text text-anchor="start" x="41" y="-756.2" font-family="Arial Narrow" font-weight="bold" font-size="11.00">4</text>
</g>
<!-- Introduction to Programming Languages, Part A -->
<g id="cs_pla" class="node course size&#45;9">
<title>Introduction to Programming Languages, Part A</title>
<text text-anchor="start" x="73" y="-681.6" font-family="Arial Narrow" font-size="13.00">Introduction to Programming Languages, Part A </text>
<text text-anchor="start" x="302" y="-681.6" font-family="Arial Narrow" font-weight="bold" font-size="13.00">9</text>
</g>
<!-- Introduction to Programming Languages, Part B -->
<g id="cs_plb" class="node course size&#45;9">
<title>Introduction to Programming Languages, Part B</title>
<text text-anchor="start" x="73" y="-718.6" font-family="Arial Narrow" font-size="13.00">Introduction to Programming Languages, Part B </text>
<text text-anchor="start" x="302" y="-718.6" font-family="Arial Narrow" font-weight="bold" font-size="13.00">9</text>
</g>
<!-- Introduction to Programming Languages, Part C -->
<g id="cs_plc" class="node course size&#45;9">
<title>Introduction to Programming Languages, Part C</title>
<text text-anchor="start" x="73" y="-755.6" font-family="Arial Narrow" font-size="13.00">Introduction to Programming Languages, Part C </text>
<text text-anchor="start" x="302" y="-755.6" font-family="Arial Narrow" font-weight="bold" font-size="13.00">9</text>
</g>
<!-- Java -->
<g id="java" class="node language size&#45;5">
<title>Java</title>
<text text-anchor="start" x="177" y="-275.2" font-family="Arial Narrow" font-size="11.00">Java </text>
<text text-anchor="start" x="199" y="-275.2" font-family="Arial Narrow" font-weight="bold" font-size="11.00">5</text>
</g>
<!-- Çelik Anahtar -->
<g id="celik" class="node project size&#45;8">
<title>Çelik Anahtar</title>
<text text-anchor="start" x="321" y="-274.6" font-family="Arial Narrow" font-size="13.00">Çelik Anahtar </text>
<text text-anchor="start" x="388" y="-274.6" font-family="Arial Narrow" font-weight="bold" font-size="13.00">8</text>
</g>
<!-- Android -->
<g id="android" class="node stack size&#45;4">
<title>Android</title>
<text text-anchor="start" x="171" y="-238.2" font-family="Arial Narrow" font-size="11.00">Android </text>
<text text-anchor="start" x="205" y="-238.2" font-family="Arial Narrow" font-weight="bold" font-size="11.00">4</text>
</g>
</g>
</svg>
