<?xml version="1.0" encoding="UTF-8" standalone="no"?>
<!DOCTYPE svg PUBLIC "-//W3C//DTD SVG 1.1//EN"
 "http://www.w3.org/Graphics/SVG/1.1/DTD/svg11.dtd">
<!-- Generated by graphviz version 2.44.1 (20200629.0846)
 -->
<!-- Title: skills Pages: 1 -->
<svg width="478pt" height="784pt"
 viewBox="0.00 0.00 478.00 784.00" xmlns="http://www.w3.org/2000/svg" xmlns:xlink="http://www.w3.org/1999/xlink">
<g id="skills" class="graph" transform="scale(1 1) rotate(0) translate(4 780)">
<title>skills</title>
<polygon fill="white" stroke="transparent" points="-4,4 -4,-780 474,-780 474,4 -4,4"/>
<!-- JavaScript&#45;&gt;React -->
<g id="skills_edge2" class="edge">
<title>JavaScript&#45;&gt;React</title>
<path fill="none" stroke="#c9d1d9" d="M39.41,-184C43.27,-228.36 55.51,-341.1 82,-366 110.94,-393.2 158.93,-394.96 190.76,-392.48"/>
<polygon fill="#c9d1d9" stroke="#c9d1d9" points="196.9,-391.93 191.16,-395.15 193.91,-392.2 190.92,-392.46 190.92,-392.46 190.92,-392.46 193.91,-392.2 190.68,-389.78 196.9,-391.93 196.9,-391.93"/>
</g>
<!-- JavaScript&#45;&gt;Vue -->
<g id="skills_edge3" class="edge">
<title>JavaScript&#45;&gt;Vue</title>
<path fill="none" stroke="#c9d1d9" d="M40.38,-184.04C45.82,-222.28 60.34,-309.58 82,-329 111.48,-355.44 159.12,-357.44 190.75,-355.21"/>
<polygon fill="#c9d1d9" stroke="#c9d1d9" points="196.85,-354.71 191.08,-357.89 193.86,-354.96 190.87,-355.2 190.87,-355.2 190.87,-355.2 193.86,-354.96 190.65,-352.51 196.85,-354.71 196.85,-354.71"/>
</g>
<!-- JavaScript&#45;&gt;Cypress -->
<g id="skills_edge4" class="edge">
<title>JavaScript&#45;&gt;Cypress</title>
<path fill="none" stroke="#c9d1d9" d="M69.38,-166C103.16,-166 156.6,-166 190.72,-166"/>
<polygon fill="#c9d1d9" stroke="#c9d1d9" points="196.86,-166 190.86,-168.7 193.86,-166 190.86,-166 190.86,-166 190.86,-166 193.86,-166 190.86,-163.3 196.86,-166 196.86,-166"/>
</g>
<!-- JavaScript&#45;&gt;Jest -->
<g id="skills_edge5" class="edge">
<title>JavaScript&#45;&gt;Jest</title>
<path fill="none" stroke="#c9d1d9" d="M48.53,-147.88C56.27,-136.27 67.87,-121.93 82,-114 115.68,-95.09 160.63,-91.05 190.64,-90.79"/>
<polygon fill="#c9d1d9" stroke="#c9d1d9" points="196.8,-90.78 190.81,-93.49 193.8,-90.78 190.8,-90.79 190.8,-90.79 190.8,-90.79 193.8,-90.78 190.8,-88.09 196.8,-90.78 196.8,-90.78"/>
</g>
<!-- JavaScript&#45;&gt;c6p &#45; log -->
<g id="skills_edge17" class="edge">
<title>JavaScript&#45;&gt;c6p &#45; log</title>
<path fill="none" stroke="#c9d1d9" d="M51.81,-147.95C59.32,-137.38 68.22,-123.49 74,-110 79.94,-96.13 70.89,-87.22 82,-77 109.52,-51.68 153.6,-48.57 185.15,-50.28"/>
<polygon fill="#c9d1d9" stroke="#c9d1d9" points="191.29,-50.68 185.12,-52.98 188.29,-50.49 185.3,-50.29 185.3,-50.29 185.3,-50.29 188.29,-50.49 185.48,-47.6 191.29,-50.68 191.29,-50.68"/>
</g>
<!-- JavaScript&#45;&gt;Paper.js -->
<g id="skills_edge19" class="edge">
<title>JavaScript&#45;&gt;Paper.js</title>
<path fill="none" stroke="#c9d1d9" d="M69.05,-177.33C73.36,-178.69 77.77,-179.96 82,-181 118.68,-190.04 161.68,-196.12 190.47,-199.55"/>
<polygon fill="#c9d1d9" stroke="#c9d1d9" points="196.74,-200.29 190.47,-202.27 193.76,-199.94 190.78,-199.59 190.78,-199.59 190.78,-199.59 193.76,-199.94 191.1,-196.91 196.74,-200.29 196.74,-200.29"/>
</g>
<!-- JavaScript&#45;&gt;Phaser -->
<g id="skills_edge20" class="edge">
<title>JavaScript&#45;&gt;Phaser</title>
<path fill="none" stroke="#c9d1d9" d="M69.05,-154.67C73.36,-153.31 77.77,-152.04 82,-151 118.68,-141.96 161.68,-135.88 190.47,-132.45"/>
<polygon fill="#c9d1d9" stroke="#c9d1d9" points="196.74,-131.71 191.1,-135.09 193.76,-132.06 190.78,-132.41 190.78,-132.41 190.78,-132.41 193.76,-132.06 190.47,-129.73 196.74,-131.71 196.74,-131.71"/>
</g>
<!-- Python&#45;&gt;Flask -->
<g id="skills_edge7" class="edge">
<title>Python&#45;&gt;Flask</title>
<path fill="none" stroke="#c9d1d9" d="M64.11,-425C97.35,-425 154.75,-425 190.71,-425"/>
<polygon fill="#c9d1d9" stroke="#c9d1d9" points="196.72,-425 190.72,-427.7 193.72,-425 190.72,-425 190.72,-425 190.72,-425 193.72,-425 190.72,-422.3 196.72,-425 196.72,-425"/>
</g>
<!-- Python&#45;&gt;Falcon -->
<g id="skills_edge8" class="edge">
<title>Python&#45;&gt;Falcon</title>
<path fill="none" stroke="#c9d1d9" d="M64.3,-434.8C70.08,-436.71 76.2,-438.57 82,-440 118.68,-449.04 161.68,-455.12 190.47,-458.55"/>
<polygon fill="#c9d1d9" stroke="#c9d1d9" points="196.74,-459.29 190.47,-461.27 193.76,-458.94 190.78,-458.59 190.78,-458.59 190.78,-458.59 193.76,-458.94 191.1,-455.91 196.74,-459.29 196.74,-459.29"/>
</g>
<!-- Unit Testing&#45;&gt;Jest -->
<g id="skills_edge6" class="edge">
<title>Unit Testing&#45;&gt;Jest</title>
<path fill="none" stroke="#c9d1d9" d="M70.65,-92C104.53,-92 157.2,-92 190.88,-92"/>
<polygon fill="#c9d1d9" stroke="#c9d1d9" points="196.95,-92 190.95,-94.7 193.95,-92 190.95,-92 190.95,-92 190.95,-92 193.95,-92 190.95,-89.3 196.95,-92 196.95,-92"/>
</g>
<!-- Vue&#45;&gt;Ön Maliyet -->
<g id="skills_edge11" class="edge">
<title>Vue&#45;&gt;Ön Maliyet</title>
<path fill="none" stroke="#c9d1d9" d="M251.03,-351C283.35,-351 338.95,-351 377.73,-351"/>
<polygon fill="#c9d1d9" stroke="#c9d1d9" points="383.8,-351 377.8,-353.7 380.8,-351 377.8,-351 377.8,-351 377.8,-351 380.8,-351 377.8,-348.3 383.8,-351 383.8,-351"/>
</g>
<!-- Falcon&#45;&gt;Ön Maliyet -->
<g id="skills_edge9" class="edge">
<title>Falcon&#45;&gt;Ön Maliyet</title>
<path fill="none" stroke="#c9d1d9" d="M251.24,-464.15C281.44,-465.3 331.32,-463.02 366,-440 389.24,-424.57 404.39,-395.63 412.79,-374.94"/>
<polygon fill="#c9d1d9" stroke="#c9d1d9" points="414.98,-369.34 415.31,-375.91 413.89,-372.13 412.8,-374.92 412.8,-374.92 412.8,-374.92 413.89,-372.13 410.28,-373.94 414.98,-369.34 414.98,-369.34"/>
</g>
<!-- Nginx&#45;&gt;PaxDict -->
<g id="skills_edge12" class="edge">
<title>Nginx&#45;&gt;PaxDict</title>
<path fill="none" stroke="#c9d1d9" d="M64.11,-639.24C97.35,-629.36 154.75,-612.29 190.71,-601.6"/>
<polygon fill="#c9d1d9" stroke="#c9d1d9" points="196.72,-599.81 191.74,-604.11 193.84,-600.67 190.97,-601.52 190.97,-601.52 190.97,-601.52 193.84,-600.67 190.2,-598.93 196.72,-599.81 196.72,-599.81"/>
</g>
<!-- SaltStack&#45;&gt;PaxDict -->
<g id="skills_edge13" class="edge">
<title>SaltStack&#45;&gt;PaxDict</title>
<path fill="none" stroke="#c9d1d9" d="M64.11,-607.46C97.35,-604.23 154.75,-598.64 190.71,-595.14"/>
<polygon fill="#c9d1d9" stroke="#c9d1d9" points="196.72,-594.56 191.01,-597.83 193.73,-594.85 190.75,-595.14 190.75,-595.14 190.75,-595.14 193.73,-594.85 190.49,-592.45 196.72,-594.56 196.72,-594.56"/>
</g>
<!-- PostgREST&#45;&gt;PaxDict -->
<g id="skills_edge14" class="edge">
<title>PostgREST&#45;&gt;PaxDict</title>
<path fill="none" stroke="#c9d1d9" d="M72.8,-576.57C106.55,-580.04 157.38,-585.26 190.38,-588.65"/>
<polygon fill="#c9d1d9" stroke="#c9d1d9" points="196.73,-589.3 190.48,-591.37 193.74,-589 190.76,-588.69 190.76,-588.69 190.76,-588.69 193.74,-589 191.03,-586 196.73,-589.3 196.73,-589.3"/>
</g>
<!-- PostgreSQL&#45;&gt;PaxDict -->
<g id="skills_edge15" class="edge">
<title>PostgreSQL&#45;&gt;PaxDict</title>
<path fill="none" stroke="#c9d1d9" d="M72.36,-546.4C106.3,-556.68 157.8,-572.26 190.92,-582.29"/>
<polygon fill="#c9d1d9" stroke="#c9d1d9" points="196.88,-584.09 190.36,-584.94 194.01,-583.22 191.14,-582.36 191.14,-582.36 191.14,-582.36 194.01,-583.22 191.92,-579.77 196.88,-584.09 196.88,-584.09"/>
</g>
<!-- SQLite&#45;&gt;Ön Maliyet -->
<g id="skills_edge10" class="edge">
<title>SQLite&#45;&gt;Ön Maliyet</title>
<path fill="none" stroke="#c9d1d9" d="M251.15,-317.19C279.57,-320.87 326.27,-327.51 366,-336 369.9,-336.83 373.94,-337.78 377.97,-338.77"/>
<polygon fill="#c9d1d9" stroke="#c9d1d9" points="383.86,-340.27 377.38,-341.41 380.95,-339.53 378.04,-338.79 378.04,-338.79 378.04,-338.79 380.95,-339.53 378.71,-336.18 383.86,-340.27 383.86,-340.27"/>
</g>
<!-- SQLite&#45;&gt;Çelik Anahtar -->
<g id="skills_edge28" class="edge">
<title>SQLite&#45;&gt;Çelik Anahtar</title>
<path fill="none" stroke="#c9d1d9" d="M251.15,-310.81C279.57,-307.13 326.27,-300.49 366,-292 367.68,-291.64 369.38,-291.26 371.1,-290.87"/>
<polygon fill="#c9d1d9" stroke="#c9d1d9" points="376.98,-289.47 371.76,-293.48 374.06,-290.16 371.14,-290.86 371.14,-290.86 371.14,-290.86 374.06,-290.16 370.52,-288.23 376.98,-289.47 376.98,-289.47"/>
</g>
<!-- Netlify&#45;&gt;c6p &#45; log -->
<g id="skills_edge18" class="edge">
<title>Netlify&#45;&gt;c6p &#45; log</title>
<path fill="none" stroke="#c9d1d9" d="M64.11,-23.22C95.75,-29.55 149.28,-40.26 185.37,-47.47"/>
<polygon fill="#c9d1d9" stroke="#c9d1d9" points="191.45,-48.69 185.03,-50.16 188.51,-48.1 185.56,-47.51 185.56,-47.51 185.56,-47.51 188.51,-48.1 186.09,-44.87 191.45,-48.69 191.45,-48.69"/>
</g>
<!-- Hugo&#45;&gt;c6p &#45; log -->
<g id="skills_edge16" class="edge">
<title>Hugo&#45;&gt;c6p &#45; log</title>
<path fill="none" stroke="#c9d1d9" d="M64.11,-55C95.75,-55 149.28,-55 185.37,-55"/>
<polygon fill="#c9d1d9" stroke="#c9d1d9" points="191.45,-55 185.45,-57.7 188.45,-55 185.45,-55 185.45,-55 185.45,-55 188.45,-55 185.45,-52.3 191.45,-55 191.45,-55"/>
</g>
<!-- C&#45;&gt;Introduction to Operating Systems -->
<g id="skills_edge1" class="edge">
<title>C&#45;&gt;Introduction to Operating Systems</title>
<path fill="none" stroke="#c9d1d9" d="M64.11,-499C84.58,-499 114.2,-499 142.34,-499"/>
<polygon fill="#c9d1d9" stroke="#c9d1d9" points="148.7,-499 142.7,-501.7 145.7,-499 142.7,-499 142.7,-499 142.7,-499 145.7,-499 142.7,-496.3 148.7,-499 148.7,-499"/>
</g>
<!-- Paper.js&#45;&gt;Dot&#45;Slice -->
<g id="skills_edge22" class="edge">
<title>Paper.js&#45;&gt;Dot&#45;Slice</title>
<path fill="none" stroke="#c9d1d9" d="M251.03,-200.61C284.63,-197.52 343.41,-192.13 382.27,-188.56"/>
<polygon fill="#c9d1d9" stroke="#c9d1d9" points="388.33,-188 382.6,-191.24 385.34,-188.27 382.35,-188.55 382.35,-188.55 382.35,-188.55 385.34,-188.27 382.11,-185.86 388.33,-188 388.33,-188"/>
</g>
<!-- Phaser&#45;&gt;Dot&#45;Slice -->
<g id="skills_edge21" class="edge">
<title>Phaser&#45;&gt;Dot&#45;Slice</title>
<path fill="none" stroke="#c9d1d9" d="M251.25,-129.99C280.17,-131.78 327.66,-136.82 366,-151 374.55,-154.16 383.22,-158.74 391.06,-163.52"/>
<polygon fill="#c9d1d9" stroke="#c9d1d9" points="396.35,-166.85 389.83,-165.94 393.81,-165.25 391.27,-163.65 391.27,-163.65 391.27,-163.65 393.81,-165.25 392.71,-161.37 396.35,-166.85 396.35,-166.85"/>
</g>
<!-- Phaser&#45;&gt;Swinging Frog -->
<g id="skills_edge23" class="edge">
<title>Phaser&#45;&gt;Swinging Frog</title>
<path fill="none" stroke="#c9d1d9" d="M251.03,-129C280.56,-129 329.52,-129 367.33,-129"/>
<polygon fill="#c9d1d9" stroke="#c9d1d9" points="373.78,-129 367.78,-131.7 370.78,-129 367.78,-129 367.78,-129 367.78,-129 370.78,-129 367.78,-126.3 373.78,-129 373.78,-129"/>
</g>
<!-- Standard ML&#45;&gt;Introduction to Programming Languages, Part A -->
<g id="skills_edge24" class="edge">
<title>Standard ML&#45;&gt;Introduction to Programming Languages, Part A</title>
<path fill="none" stroke="#c9d1d9" d="M74.11,-684C74.58,-684 75.06,-684 75.54,-684"/>
<polygon fill="#c9d1d9" stroke="#c9d1d9" points="81.94,-684 75.94,-686.7 78.94,-684 75.94,-684 75.94,-684 75.94,-684 78.94,-684 75.94,-681.3 81.94,-684 81.94,-684"/>
</g>
<!-- Racket&#45;&gt;Introduction to Programming Languages, Part B -->
<g id="skills_edge25" class="edge">
<title>Racket&#45;&gt;Introduction to Programming Languages, Part B</title>
<path fill="none" stroke="#c9d1d9" d="M64.11,-721C67.88,-721 71.96,-721 76.28,-721"/>
<polygon fill="#c9d1d9" stroke="#c9d1d9" points="82.31,-721 76.31,-723.7 79.31,-721 76.31,-721 76.31,-721 76.31,-721 79.31,-721 76.31,-718.3 82.31,-721 82.31,-721"/>
</g>
<!-- Ruby&#45;&gt;Introduction to Programming Languages, Part C -->
<g id="skills_edge26" class="edge">
<title>Ruby&#45;&gt;Introduction to Programming Languages, Part C</title>
<path fill="none" stroke="#c9d1d9" d="M64.11,-758C67.73,-758 71.63,-758 75.75,-758"/>
<polygon fill="#c9d1d9" stroke="#c9d1d9" points="81.95,-758 75.95,-760.7 78.95,-758 75.95,-758 75.95,-758 75.95,-758 78.95,-758 75.95,-755.3 81.95,-758 81.95,-758"/>
</g>
<!-- Java&#45;&gt;Çelik Anahtar -->
<g id="skills_edge27" class="edge">
<title>Java&#45;&gt;Çelik Anahtar</title>
<path fill="none" stroke="#c9d1d9" d="M251.03,-277C281.47,-277 332.57,-277 370.81,-277"/>
<polygon fill="#c9d1d9" stroke="#c9d1d9" points="376.83,-277 370.83,-279.7 373.83,-277 370.83,-277 370.83,-277 370.83,-277 373.83,-277 370.83,-274.3 376.83,-277 376.83,-277"/>
</g>
<!-- Android&#45;&gt;Çelik Anahtar -->
<g id="skills_edge29" class="edge">
<title>Android&#45;&gt;Çelik Anahtar</title>
<path fill="none" stroke="#c9d1d9" d="M251.15,-243.19C279.57,-246.87 326.27,-253.51 366,-262 367.68,-262.36 369.38,-262.74 371.1,-263.13"/>
<polygon fill="#c9d1d9" stroke="#c9d1d9" points="376.98,-264.53 370.52,-265.77 374.06,-263.84 371.14,-263.14 371.14,-263.14 371.14,-263.14 374.06,-263.84 371.76,-260.52 376.98,-264.53 376.98,-264.53"/>
</g>
<!-- JavaScript -->
<g id="js" class="node language size&#45;7">
<title>JavaScript</title>
<text text-anchor="start" x="6" y="-163.6" font-family="Times New Roman,serif" font-size="13.00">JavaScript </text>
<text text-anchor="start" x="61" y="-163.6" font-family="Times New Roman,serif" font-weight="bold" font-size="13.00">7</text>
</g>
<!-- Python -->
<g id="python" class="node language size&#45;7">
<title>Python</title>
<text text-anchor="start" x="13.5" y="-422.6" font-family="Times New Roman,serif" font-size="13.00">Python </text>
<text text-anchor="start" x="53.5" y="-422.6" font-family="Times New Roman,serif" font-weight="bold" font-size="13.00">7</text>
</g>
<!-- Rust -->
<g id="rust" class="node language size&#45;4">
<title>Rust</title>
<text text-anchor="start" x="21.5" y="-459.9" font-family="Times New Roman,serif" font-size="12.00">Rust </text>
<text text-anchor="start" x="45.5" y="-459.9" font-family="Times New Roman,serif" font-weight="bold" font-size="12.00">4</text>
</g>
<!-- Unit Testing -->
<g id="unit" class="node method size&#45;4">
<title>Unit Testing</title>
<text text-anchor="start" x="4.5" y="-89.9" font-family="Times New Roman,serif" font-size="12.00">Unit Testing </text>
<text text-anchor="start" x="62.5" y="-89.9" font-family="Times New Roman,serif" font-weight="bold" font-size="12.00">4</text>
</g>
<!-- Introduction to Operating Systems -->
<g id="cs_os" class="node course size&#45;1">
<title>Introduction to Operating Systems</title>
<g id="a_cs_os"><a xlink:href="/docs/courses/operating_systems" xlink:title="&lt;font point&#45;size=&quot;10.5&quot;&gt;Introduction to Operating Systems &lt;b&gt;1&lt;/b&gt;&lt;/font&gt;">
<text text-anchor="start" x="150" y="-497.5" font-family="Times New Roman,serif" font-size="10.00">Introduction to Operating Systems </text>
<text text-anchor="start" x="292" y="-497.5" font-family="Times New Roman,serif" font-weight="bold" font-size="10.00">1</text>
</a>
</g>
</g>
<!-- React -->
<g id="react" class="node library size&#45;4">
<title>React</title>
<text text-anchor="start" x="205.5" y="-385.9" font-family="Times New Roman,serif" font-size="12.00">React </text>
<text text-anchor="start" x="235.5" y="-385.9" font-family="Times New Roman,serif" font-weight="bold" font-size="12.00">4</text>
</g>
<!-- Vue -->
<g id="vue" class="node library size&#45;8">
<title>Vue</title>
<text text-anchor="start" x="206.5" y="-348.3" font-family="Times New Roman,serif" font-size="14.00">Vue </text>
<text text-anchor="start" x="233.5" y="-348.3" font-family="Times New Roman,serif" font-weight="bold" font-size="14.00">8</text>
</g>
<!-- Cypress -->
<g id="cypress" class="node library size&#45;0">
<title>Cypress</title>
<text text-anchor="start" x="203" y="-164.5" font-family="Times New Roman,serif" font-size="10.00">Cypress </text>
<text text-anchor="start" x="239" y="-164.5" font-family="Times New Roman,serif" font-weight="bold" font-size="10.00">0</text>
</g>
<!-- Jest -->
<g id="jest" class="node library size&#45;3">
<title>Jest</title>
<text text-anchor="start" x="210" y="-90.2" font-family="Times New Roman,serif" font-size="11.00">Jest </text>
<text text-anchor="start" x="231" y="-90.2" font-family="Times New Roman,serif" font-weight="bold" font-size="11.00">3</text>
</g>
<!-- Flask -->
<g id="flask" class="node library size&#45;5">
<title>Flask</title>
<text text-anchor="start" x="206.5" y="-422.9" font-family="Times New Roman,serif" font-size="12.00">Flask </text>
<text text-anchor="start" x="234.5" y="-422.9" font-family="Times New Roman,serif" font-weight="bold" font-size="12.00">5</text>
</g>
<!-- Falcon -->
<g id="falcon" class="node library size&#45;8">
<title>Falcon</title>
<text text-anchor="start" x="198.5" y="-459.3" font-family="Times New Roman,serif" font-size="14.00">Falcon </text>
<text text-anchor="start" x="241.5" y="-459.3" font-family="Times New Roman,serif" font-weight="bold" font-size="14.00">8</text>
</g>
<!-- Ön Maliyet -->
<g id="maliyet" class="node project size&#45;8">
<title>Ön Maliyet</title>
<text text-anchor="start" x="385" y="-348.3" font-family="Times New Roman,serif" font-size="14.00">Ön Maliyet </text>
<text text-anchor="start" x="451" y="-348.3" font-family="Times New Roman,serif" font-weight="bold" font-size="14.00">8</text>
</g>
<!-- PaxDict -->
<g id="paxdict" class="node project size&#45;6">
<title>PaxDict</title>
<text text-anchor="start" x="198" y="-589.6" font-family="Times New Roman,serif" font-size="13.00">PaxDict </text>
<text text-anchor="start" x="243" y="-589.6" font-family="Times New Roman,serif" font-weight="bold" font-size="13.00">6</text>
</g>
<!-- Nginx -->
<g id="nginx" class="node library size&#45;3">
<title>Nginx</title>
<text text-anchor="start" x="18.5" y="-645.2" font-family="Times New Roman,serif" font-size="11.00">Nginx </text>
<text text-anchor="start" x="48.5" y="-645.2" font-family="Times New Roman,serif" font-weight="bold" font-size="11.00">3</text>
</g>
<!-- SaltStack -->
<g id="salt" class="node library size&#45;3">
<title>SaltStack</title>
<text text-anchor="start" x="11" y="-608.2" font-family="Times New Roman,serif" font-size="11.00">SaltStack </text>
<text text-anchor="start" x="56" y="-608.2" font-family="Times New Roman,serif" font-weight="bold" font-size="11.00">3</text>
</g>
<!-- PostgREST -->
<g id="postgrest" class="node library size&#45;6">
<title>PostgREST</title>
<text text-anchor="start" x="2.5" y="-570.6" font-family="Times New Roman,serif" font-size="13.00">PostgREST </text>
<text text-anchor="start" x="64.5" y="-570.6" font-family="Times New Roman,serif" font-weight="bold" font-size="13.00">6</text>
</g>
<!-- PostgreSQL -->
<g id="postgresql" class="node database size&#45;5">
<title>PostgreSQL</title>
<text text-anchor="start" x="3" y="-533.9" font-family="Times New Roman,serif" font-size="12.00">PostgreSQL </text>
<text text-anchor="start" x="64" y="-533.9" font-family="Times New Roman,serif" font-weight="bold" font-size="12.00">5</text>
</g>
<!-- SQLite -->
<g id="sqlite" class="node database size&#45;7">
<title>SQLite</title>
<text text-anchor="start" x="200.5" y="-311.6" font-family="Times New Roman,serif" font-size="13.00">SQLite </text>
<text text-anchor="start" x="240.5" y="-311.6" font-family="Times New Roman,serif" font-weight="bold" font-size="13.00">7</text>
</g>
<!-- c6p &#45; log -->
<g id="blog" class="node project size&#45;9">
<title>c6p &#45; log</title>
<text text-anchor="start" x="192.5" y="-52.3" font-family="Times New Roman,serif" font-size="14.00">c6p &#45; log </text>
<text text-anchor="start" x="247.5" y="-52.3" font-family="Times New Roman,serif" font-weight="bold" font-size="14.00">9</text>
</g>
<!-- Netlify -->
<g id="netlify" class="node stack size&#45;5">
<title>Netlify</title>
<text text-anchor="start" x="16.5" y="-15.9" font-family="Times New Roman,serif" font-size="12.00">Netlify </text>
<text text-anchor="start" x="50.5" y="-15.9" font-family="Times New Roman,serif" font-weight="bold" font-size="12.00">5</text>
</g>
<!-- Hugo -->
<g id="hugo" class="node library size&#45;8">
<title>Hugo</title>
<text text-anchor="start" x="15.5" y="-52.3" font-family="Times New Roman,serif" font-size="14.00">Hugo </text>
<text text-anchor="start" x="50.5" y="-52.3" font-family="Times New Roman,serif" font-weight="bold" font-size="14.00">8</text>
</g>
<!-- C -->
<g id="cpp" class="node language size&#45;5">
<title>C</title>
<text text-anchor="start" x="27.5" y="-496.9" font-family="Times New Roman,serif" font-size="12.00">C </text>
<text text-anchor="start" x="39.5" y="-496.9" font-family="Times New Roman,serif" font-weight="bold" font-size="12.00">5</text>
</g>
<!-- Paper.js -->
<g id="paper" class="node library size&#45;5">
<title>Paper.js</title>
<text text-anchor="start" x="200" y="-200.9" font-family="Times New Roman,serif" font-size="12.00">Paper.js </text>
<text text-anchor="start" x="241" y="-200.9" font-family="Times New Roman,serif" font-weight="bold" font-size="12.00">5</text>
</g>
<!-- Phaser -->
<g id="phaser" class="node library size&#45;7">
<title>Phaser</title>
<text text-anchor="start" x="201.5" y="-126.6" font-family="Times New Roman,serif" font-size="13.00">Phaser </text>
<text text-anchor="start" x="239.5" y="-126.6" font-family="Times New Roman,serif" font-weight="bold" font-size="13.00">7</text>
</g>
<!-- Dot&#45;Slice -->
<g id="dotslice" class="node project size&#45;9">
<title>Dot&#45;Slice</title>
<text text-anchor="start" x="389.5" y="-182.3" font-family="Times New Roman,serif" font-size="14.00">Dot&#45;Slice </text>
<text text-anchor="start" x="446.5" y="-182.3" font-family="Times New Roman,serif" font-weight="bold" font-size="14.00">9</text>
</g>
<!-- Swinging Frog -->
<g id="frog" class="node project size&#45;9">
<title>Swinging Frog</title>
<text text-anchor="start" x="375" y="-126.3" font-family="Times New Roman,serif" font-size="14.00">Swinging Frog </text>
<text text-anchor="start" x="461" y="-126.3" font-family="Times New Roman,serif" font-weight="bold" font-size="14.00">9</text>
</g>
<!-- Standard ML -->
<g id="sml" class="node language size&#45;4">
<title>Standard ML</title>
<text text-anchor="start" x="1" y="-681.9" font-family="Times New Roman,serif" font-size="12.00">Standard ML </text>
<text text-anchor="start" x="66" y="-681.9" font-family="Times New Roman,serif" font-weight="bold" font-size="12.00">4</text>
</g>
<!-- Racket -->
<g id="racket" class="node language size&#45;4">
<title>Racket</title>
<text text-anchor="start" x="15.5" y="-718.9" font-family="Times New Roman,serif" font-size="12.00">Racket </text>
<text text-anchor="start" x="51.5" y="-718.9" font-family="Times New Roman,serif" font-weight="bold" font-size="12.00">4</text>
</g>
<!-- Ruby -->
<g id="ruby" class="node language size&#45;4">
<title>Ruby</title>
<text text-anchor="start" x="19.5" y="-755.9" font-family="Times New Roman,serif" font-size="12.00">Ruby </text>
<text text-anchor="start" x="47.5" y="-755.9" font-family="Times New Roman,serif" font-weight="bold" font-size="12.00">4</text>
</g>
<!-- Introduction to Programming Languages, Part A -->
<g id="cs_pla" class="node course size&#45;9">
<title>Introduction to Programming Languages, Part A</title>
<text text-anchor="start" x="83" y="-681.3" font-family="Times New Roman,serif" font-size="14.00">Introduction to Programming Languages, Part A </text>
<text text-anchor="start" x="357" y="-681.3" font-family="Times New Roman,serif" font-weight="bold" font-size="14.00">9</text>
</g>
<!-- Introduction to Programming Languages, Part B -->
<g id="cs_plb" class="node course size&#45;9">
<title>Introduction to Programming Languages, Part B</title>
<text text-anchor="start" x="83.5" y="-718.3" font-family="Times New Roman,serif" font-size="14.00">Introduction to Programming Languages, Part B </text>
<text text-anchor="start" x="356.5" y="-718.3" font-family="Times New Roman,serif" font-weight="bold" font-size="14.00">9</text>
</g>
<!-- Introduction to Programming Languages, Part C -->
<g id="cs_plc" class="node course size&#45;9">
<title>Introduction to Programming Languages, Part C</title>
<text text-anchor="start" x="83" y="-755.3" font-family="Times New Roman,serif" font-size="14.00">Introduction to Programming Languages, Part C </text>
<text text-anchor="start" x="357" y="-755.3" font-family="Times New Roman,serif" font-weight="bold" font-size="14.00">9</text>
</g>
<!-- Java -->
<g id="java" class="node language size&#45;5">
<title>Java</title>
<text text-anchor="start" x="208.5" y="-274.9" font-family="Times New Roman,serif" font-size="12.00">Java </text>
<text text-anchor="start" x="232.5" y="-274.9" font-family="Times New Roman,serif" font-weight="bold" font-size="12.00">5</text>
</g>
<!-- Çelik Anahtar -->
<g id="celik" class="node project size&#45;8">
<title>Çelik Anahtar</title>
<text text-anchor="start" x="378" y="-274.3" font-family="Times New Roman,serif" font-size="14.00">Çelik Anahtar </text>
<text text-anchor="start" x="458" y="-274.3" font-family="Times New Roman,serif" font-weight="bold" font-size="14.00">8</text>
</g>
<!-- Android -->
<g id="android" class="node stack size&#45;4">
<title>Android</title>
<text text-anchor="start" x="200" y="-237.9" font-family="Times New Roman,serif" font-size="12.00">Android </text>
<text text-anchor="start" x="241" y="-237.9" font-family="Times New Roman,serif" font-weight="bold" font-size="12.00">4</text>
</g>
</g>
</svg>
